<svg width="103" height="187" viewBox="0 0 103 187" fill="none" xmlns="http://www.w3.org/2000/svg">
<path d="M10.1289 122.946L51.0092 10.7255L91.8895 122.946L10.1289 122.946Z" fill="#4179C5" stroke="#4B94F7" stroke-width="7"/>
<g filter="url(#filter0_d_102_1038)">
<ellipse cx="51.01" cy="131.844" rx="51.01" ry="51.01" fill="#4B94F7"/>
</g>
<path fill-rule="evenodd" clip-rule="evenodd" d="M51.0109 161.55C67.4173 161.55 80.7173 148.25 80.7173 131.844C80.7173 115.437 67.4173 102.137 51.0109 102.137C34.6046 102.137 21.3046 115.437 21.3046 131.844C21.3046 148.25 34.6046 161.55 51.0109 161.55ZM51.0109 174.145C74.3731 174.145 93.3119 155.206 93.3119 131.844C93.3119 108.481 74.3731 89.5426 51.0109 89.5426C27.6488 89.5426 8.70996 108.481 8.70996 131.844C8.70996 155.206 27.6488 174.145 51.0109 174.145Z" fill="white"/>
<ellipse cx="51.0099" cy="131.844" rx="34.8361" ry="34.8361" fill="#4B94F7"/>
<ellipse cx="51.0098" cy="131.844" rx="18.6622" ry="18.6622" fill="#4179C5"/>
<defs>
<filter id="filter0_d_102_1038" x="0" y="80.8336" width="102.02" height="106.02" filterUnits="userSpaceOnUse" color-interpolation-filters="sRGB">
<feFlood flood-opacity="0" result="BackgroundImageFix"/>
<feColorMatrix in="SourceAlpha" type="matrix" values="0 0 0 0 0 0 0 0 0 0 0 0 0 0 0 0 0 0 127 0" result="hardAlpha"/>
<feOffset dy="4"/>
<feComposite in2="hardAlpha" operator="out"/>
<feColorMatrix type="matrix" values="0 0 0 0 0 0 0 0 0 0 0 0 0 0 0 0 0 0 0.25 0"/>
<feBlend mode="normal" in2="BackgroundImageFix" result="effect1_dropShadow_102_1038"/>
<feBlend mode="normal" in="SourceGraphic" in2="effect1_dropShadow_102_1038" result="shape"/>
</filter>
</defs>
</svg>
