<svg width="134" height="40" viewBox="0 0 134 40" fill="none" xmlns="http://www.w3.org/2000/svg">
<path d="M0 20L9.99354 10.0065V29.9804H29.9804V20.1839L40 20L20 40L0 20Z" fill="white"/>
<path d="M19.9405 9.99346H29.9804V20.1839L19.8787 20.3693L19.9405 9.99346Z" fill="white"/>
<path d="M19.9405 9.99346H10.0066L20 0L19.9405 9.99346Z" fill="white"/>
<path d="M131.24 20.2301L133.584 19.9744C133.409 19.0464 132.952 18.3101 132.213 17.7656C131.479 17.2211 130.473 16.9488 129.195 16.9488C128.323 16.9488 127.554 17.0862 126.886 17.3608C126.223 17.6307 125.705 18.0142 125.331 18.5113C124.962 19.0038 124.779 19.5862 124.784 20.2585C124.779 21.054 125.028 21.7121 125.53 22.2329C126.032 22.749 126.806 23.116 127.852 23.3338L129.713 23.7244C130.215 23.8333 130.584 23.9896 130.821 24.1932C131.062 24.3968 131.183 24.6548 131.183 24.9673C131.183 25.3366 130.996 25.6468 130.622 25.8977C130.253 26.1487 129.763 26.2741 129.152 26.2741C128.56 26.2741 128.08 26.1487 127.71 25.8977C127.341 25.6468 127.099 25.2751 126.986 24.7827L124.479 25.0241C124.635 26.0279 125.12 26.8115 125.935 27.375C126.749 27.9337 127.824 28.2131 129.159 28.2131C130.068 28.2131 130.873 28.0663 131.574 27.7727C132.275 27.4792 132.822 27.072 133.214 26.5511C133.612 26.0256 133.813 25.4195 133.818 24.7329C133.813 23.9517 133.558 23.3196 133.051 22.8366C132.549 22.3537 131.782 22.0009 130.75 21.7784L128.889 21.3807C128.335 21.2528 127.938 21.0895 127.696 20.8906C127.459 20.6917 127.343 20.4337 127.348 20.1165C127.343 19.7471 127.521 19.4465 127.881 19.2145C128.245 18.9825 128.695 18.8665 129.23 18.8665C129.628 18.8665 129.964 18.9304 130.239 19.0582C130.513 19.1861 130.731 19.3542 130.892 19.5625C131.058 19.7708 131.174 19.9934 131.24 20.2301Z" fill="white"/>
<path fill-rule="evenodd" clip-rule="evenodd" d="M117.552 28.2131C116.487 28.2131 115.564 27.9787 114.782 27.5099C114.001 27.0412 113.395 26.3854 112.964 25.5426C112.538 24.6998 112.325 23.7149 112.325 22.5881C112.325 21.4612 112.538 20.4739 112.964 19.6264C113.395 18.7789 114.001 18.1207 114.782 17.652C115.564 17.1832 116.487 16.9488 117.552 16.9488C118.618 16.9488 119.541 17.1832 120.322 17.652C121.103 18.1207 121.707 18.7789 122.133 19.6264C122.564 20.4739 122.779 21.4612 122.779 22.5881C122.779 23.7149 122.564 24.6998 122.133 25.5426C121.707 26.3854 121.103 27.0412 120.322 27.5099C119.541 27.9787 118.618 28.2131 117.552 28.2131ZM117.566 26.1534C118.144 26.1534 118.627 25.9948 119.015 25.6775C119.404 25.3556 119.692 24.9247 119.882 24.3849C120.076 23.8452 120.173 23.2438 120.173 22.581C120.173 21.9133 120.076 21.3096 119.882 20.7699C119.692 20.2254 119.404 19.7921 119.015 19.4702C118.627 19.1482 118.144 18.9872 117.566 18.9872C116.975 18.9872 116.482 19.1482 116.089 19.4702C115.701 19.7921 115.41 20.2254 115.216 20.7699C115.026 21.3096 114.931 21.9133 114.931 22.581C114.931 23.2438 115.026 23.8452 115.216 24.3849C115.41 24.9247 115.701 25.3556 116.089 25.6775C116.482 25.9948 116.975 26.1534 117.566 26.1534Z" fill="white"/>
<path d="M103.177 21.6079C103.177 21.0824 103.274 20.6349 103.468 20.2656C103.667 19.8963 103.94 19.6146 104.285 19.4204C104.636 19.2216 105.036 19.1221 105.485 19.1221C106.148 19.1221 106.667 19.3281 107.041 19.74C107.42 20.152 107.609 20.7225 107.609 21.4517V28H110.18V21.054C110.185 20.1827 110.031 19.4417 109.718 18.8309C109.411 18.2202 108.975 17.7538 108.412 17.4318C107.853 17.1098 107.197 16.9488 106.444 16.9488C105.63 16.9488 104.946 17.1288 104.392 17.4886C103.842 17.8485 103.442 18.3338 103.191 18.9446H103.064V17.0909H100.606V28H103.177V21.6079Z" fill="white"/>
<path d="M90.9116 21.6079V28H88.3406V13.4545H90.8548V18.9446H90.9826C91.2383 18.3291 91.6336 17.8437 92.1687 17.4886C92.7085 17.1288 93.395 16.9488 94.2283 16.9488C94.9859 16.9488 95.6464 17.1075 96.2099 17.4247C96.7733 17.7419 97.2089 18.2059 97.5167 18.8167C97.8292 19.4275 97.9854 20.1733 97.9854 21.054V28H95.4144V21.4517C95.4144 20.7178 95.225 20.1472 94.8462 19.74C94.4722 19.3281 93.9466 19.1221 93.2695 19.1221C92.815 19.1221 92.4078 19.2216 92.0479 19.4204C91.6928 19.6146 91.4135 19.8963 91.2099 20.2656C91.011 20.6349 90.9116 21.0824 90.9116 21.6079Z" fill="white"/>
<path d="M78.7507 27.4957C79.532 27.9739 80.4671 28.2131 81.5561 28.2131C82.4699 28.2131 83.2654 28.0473 83.9425 27.7159C84.6196 27.3797 85.1546 26.9157 85.5476 26.3238C85.9406 25.7273 86.1679 25.0431 86.2294 24.2713H83.772C83.6963 24.6643 83.5566 24.9981 83.353 25.2727C83.1494 25.5473 82.8961 25.758 82.593 25.9048C82.2947 26.0469 81.9562 26.1179 81.5774 26.1179C81.0424 26.1179 80.576 25.9758 80.1783 25.6917C79.7853 25.4029 79.4799 24.9934 79.2621 24.4631C79.0443 23.928 78.9354 23.2888 78.9354 22.5454C78.9354 21.8115 79.0443 21.1818 79.2621 20.6562C79.4846 20.1307 79.7947 19.7282 80.1925 19.4488C80.5902 19.1648 81.0518 19.0227 81.5774 19.0227C82.1977 19.0227 82.6925 19.2003 83.0618 19.5554C83.4358 19.9058 83.6726 20.3437 83.772 20.8693H86.2294C86.1726 20.0833 85.9406 19.3968 85.5334 18.8096C85.1262 18.2178 84.5793 17.7609 83.8928 17.4389C83.2109 17.1122 82.4273 16.9488 81.5419 16.9488C80.4766 16.9488 79.5533 17.188 78.772 17.6662C77.9955 18.1397 77.3942 18.8025 76.968 19.6548C76.5419 20.5024 76.3288 21.4801 76.3288 22.5881C76.3288 23.6913 76.5372 24.6667 76.9538 25.5142C77.3752 26.357 77.9742 27.0175 78.7507 27.4957Z" fill="white"/>
<path fill-rule="evenodd" clip-rule="evenodd" d="M69.7717 28.2131C68.6779 28.2131 67.7333 27.9858 66.9379 27.5312C66.1471 27.072 65.5387 26.4233 65.1126 25.5852C64.6864 24.7424 64.4734 23.7505 64.4734 22.6094C64.4734 21.4872 64.6864 20.5024 65.1126 19.6548C65.5434 18.8025 66.1448 18.1397 66.9165 17.6662C67.6883 17.188 68.5951 16.9488 69.6367 16.9488C70.3091 16.9488 70.9435 17.0578 71.5401 17.2756C72.1415 17.4886 72.6718 17.8201 73.131 18.2699C73.595 18.7197 73.9596 19.2926 74.2248 19.9886C74.4899 20.6799 74.6225 21.5038 74.6225 22.4602V23.2486H67.0235C67.031 23.8558 67.1469 24.379 67.3711 24.8182C67.6031 25.268 67.9274 25.6136 68.3441 25.8551C68.7608 26.0918 69.2485 26.2102 69.8072 26.2102C70.1812 26.2102 70.5198 26.1581 70.8228 26.054C71.1258 25.9451 71.3886 25.7864 71.6112 25.5781C71.8337 25.3698 72.0018 25.1117 72.1154 24.804L74.516 25.0738C74.3645 25.7083 74.0756 26.2623 73.6495 26.7358C73.2281 27.2045 72.6883 27.5691 72.0302 27.8295C71.372 28.0852 70.6192 28.2131 69.7717 28.2131ZM67.3569 20.3295C67.1626 20.6929 67.053 21.0882 67.0283 21.5156H72.158C72.1533 21.0232 72.0468 20.5852 71.8384 20.2017C71.6301 19.8134 71.3389 19.508 70.9648 19.2855C70.5955 19.063 70.1646 18.9517 69.6722 18.9517C69.1467 18.9517 68.685 19.0795 68.2873 19.3352C67.8896 19.5862 67.5794 19.9176 67.3569 20.3295Z" fill="white"/>
<path d="M52.7955 13.4545V15.6633H57.2912V28H59.9048V15.6633H64.4006V13.4545H52.7955Z" fill="white"/>
</svg>
