<svg width="90" height="27" viewBox="0 0 90 27" fill="none" xmlns="http://www.w3.org/2000/svg">
<path d="M0 13.4511L6.7212 6.7299V20.1635H20.1635V13.5748L26.9022 13.4511L13.4511 26.9022L0 13.4511Z" fill="black"/>
<path d="M13.4111 6.72115H20.1635V13.5748L13.3695 13.6995L13.4111 6.72115Z" fill="black"/>
<path d="M13.4111 6.72115H6.72995L13.4511 0L13.4111 6.72115Z" fill="black"/>
<path d="M88.2661 13.6058L89.8424 13.4339C89.7245 12.8097 89.4172 12.3145 88.9205 11.9483C88.4269 11.5821 87.7502 11.399 86.8904 11.399C86.3045 11.399 85.787 11.4914 85.338 11.6761C84.8922 11.8576 84.5435 12.1155 84.2919 12.4499C84.0435 12.7811 83.9209 13.1728 83.9241 13.6249C83.9209 14.1599 84.0881 14.6026 84.4256 14.9529C84.7632 15.3 85.2838 15.5468 85.9876 15.6932L87.2391 15.956C87.5766 16.0292 87.825 16.1343 87.9842 16.2712C88.1467 16.4081 88.2279 16.5817 88.2279 16.7919C88.2279 17.0403 88.1021 17.2488 87.8505 17.4176C87.6021 17.5864 87.2725 17.6708 86.8617 17.6708C86.4637 17.6708 86.1405 17.5864 85.8921 17.4176C85.6437 17.2488 85.4813 16.9989 85.4048 16.6677L83.7187 16.8301C83.8238 17.5052 84.1502 18.0322 84.6979 18.4112C85.2456 18.7869 85.9685 18.9748 86.8665 18.9748C87.4779 18.9748 88.0193 18.8761 88.4906 18.6787C88.9619 18.4812 89.3297 18.2074 89.594 17.8571C89.8615 17.5036 89.9968 17.096 90 16.6342C89.9968 16.1088 89.8249 15.6837 89.4841 15.3589C89.1466 15.0341 88.6307 14.7968 87.9365 14.6472L86.685 14.3797C86.3124 14.2937 86.0449 14.1838 85.8825 14.0501C85.7233 13.9163 85.6453 13.7428 85.6485 13.5294C85.6453 13.281 85.7647 13.0788 86.0067 12.9228C86.2519 12.7667 86.5544 12.6887 86.9143 12.6887C87.1818 12.6887 87.4079 12.7317 87.5926 12.8177C87.7773 12.9037 87.9237 13.0167 88.032 13.1568C88.1435 13.2969 88.2215 13.4466 88.2661 13.6058Z" fill="black"/>
<path fill-rule="evenodd" clip-rule="evenodd" d="M79.0602 18.9748C78.3437 18.9748 77.7228 18.8172 77.1973 18.5019C76.6719 18.1867 76.2643 17.7456 75.9745 17.1788C75.6879 16.612 75.5446 15.9496 75.5446 15.1917C75.5446 14.4338 75.6879 13.7698 75.9745 13.1998C76.2643 12.6298 76.6719 12.1872 77.1973 11.8719C77.7228 11.5567 78.3437 11.399 79.0602 11.399C79.7767 11.399 80.3977 11.5567 80.9231 11.8719C81.4486 12.1872 81.8546 12.6298 82.1412 13.1998C82.431 13.7698 82.5759 14.4338 82.5759 15.1917C82.5759 15.9496 82.431 16.612 82.1412 17.1788C81.8546 17.7456 81.4486 18.1867 80.9231 18.5019C80.3977 18.8172 79.7767 18.9748 79.0602 18.9748ZM79.0698 17.5896C79.4583 17.5896 79.7831 17.4829 80.0442 17.2695C80.3054 17.053 80.4996 16.7632 80.627 16.4002C80.7575 16.0372 80.8228 15.6327 80.8228 15.1869C80.8228 14.7379 80.7575 14.3319 80.627 13.9689C80.4996 13.6027 80.3054 13.3113 80.0442 13.0947C79.7831 12.8782 79.4583 12.7699 79.0698 12.7699C78.6717 12.7699 78.3406 12.8782 78.0762 13.0947C77.8151 13.3113 77.6193 13.6027 77.4887 13.9689C77.3613 14.3319 77.2976 14.7379 77.2976 15.1869C77.2976 15.6327 77.3613 16.0372 77.4887 16.4002C77.6193 16.7632 77.8151 17.053 78.0762 17.2695C78.3406 17.4829 78.6717 17.5896 79.0698 17.5896Z" fill="black"/>
<path d="M69.3923 14.5325C69.3923 14.179 69.4576 13.8781 69.5881 13.6297C69.7219 13.3813 69.905 13.1919 70.1374 13.0613C70.3731 12.9276 70.6422 12.8607 70.9447 12.8607C71.3905 12.8607 71.7392 12.9992 71.9908 13.2762C72.2455 13.5533 72.3729 13.937 72.3729 14.4274V18.8315H74.1021V14.1599C74.1052 13.574 74.0018 13.0756 73.7916 12.6648C73.5846 12.254 73.2916 11.9404 72.9127 11.7238C72.5369 11.5073 72.0959 11.399 71.5895 11.399C71.0418 11.399 70.5817 11.52 70.2091 11.762C69.8397 12.0041 69.5706 12.3305 69.4018 12.7413H69.3158V11.4946H67.6631V18.8315H69.3923V14.5325Z" fill="black"/>
<path d="M61.143 14.5325V18.8315H59.4138V9.0489H61.1048V12.7413H61.1907C61.3627 12.3273 61.6286 12.0009 61.9884 11.762C62.3515 11.52 62.8132 11.399 63.3737 11.399C63.8832 11.399 64.3274 11.5057 64.7064 11.7191C65.0853 11.9324 65.3783 12.2445 65.5853 12.6553C65.7954 13.0661 65.9005 13.5676 65.9005 14.1599V18.8315H64.1714V14.4274C64.1714 13.9338 64.044 13.5501 63.7892 13.2762C63.5377 12.9992 63.1842 12.8607 62.7288 12.8607C62.4231 12.8607 62.1493 12.9276 61.9072 13.0613C61.6684 13.1919 61.4805 13.3813 61.3436 13.6297C61.2098 13.8781 61.143 14.179 61.143 14.5325Z" fill="black"/>
<path d="M52.9641 18.4924C53.4896 18.814 54.1185 18.9748 54.8509 18.9748C55.4655 18.9748 56.0005 18.8634 56.4559 18.6404C56.9112 18.4143 57.2711 18.1023 57.5354 17.7042C57.7997 17.303 57.9526 16.8428 57.994 16.3238H56.3412C56.2903 16.5881 56.1963 16.8126 56.0594 16.9973C55.9225 17.182 55.7521 17.3237 55.5483 17.4224C55.3477 17.5179 55.12 17.5657 54.8652 17.5657C54.5054 17.5657 54.1917 17.4702 53.9242 17.2791C53.6599 17.0848 53.4545 16.8094 53.308 16.4527C53.1616 16.0929 53.0883 15.663 53.0883 15.163C53.0883 14.6694 53.1616 14.2459 53.308 13.8924C53.4577 13.539 53.6663 13.2683 53.9338 13.0804C54.2013 12.8893 54.5118 12.7938 54.8652 12.7938C55.2824 12.7938 55.6152 12.9132 55.8636 13.1521C56.1151 13.3877 56.2744 13.6823 56.3412 14.0357H57.994C57.9557 13.5071 57.7997 13.0454 57.5258 12.6505C57.252 12.2525 56.8842 11.9452 56.4224 11.7286C55.9639 11.5089 55.4369 11.399 54.8414 11.399C54.1249 11.399 53.5039 11.5598 52.9785 11.8815C52.4562 12.1999 52.0518 12.6457 51.7652 13.2189C51.4786 13.7889 51.3353 14.4465 51.3353 15.1917C51.3353 15.9337 51.4754 16.5897 51.7556 17.1597C52.039 17.7265 52.4419 18.1707 52.9641 18.4924Z" fill="black"/>
<path fill-rule="evenodd" clip-rule="evenodd" d="M46.9252 18.9748C46.1896 18.9748 45.5543 18.822 45.0193 18.5163C44.4875 18.2074 44.0783 17.7711 43.7917 17.2074C43.5051 16.6406 43.3618 15.9735 43.3618 15.206C43.3618 14.4513 43.5051 13.7889 43.7917 13.2189C44.0815 12.6457 44.486 12.1999 45.005 11.8815C45.5241 11.5598 46.1339 11.399 46.8345 11.399C47.2867 11.399 47.7134 11.4723 48.1146 11.6187C48.519 11.762 48.8757 11.985 49.1846 12.2875C49.4967 12.59 49.7419 12.9753 49.9202 13.4434C50.0985 13.9084 50.1877 14.4625 50.1877 15.1057V15.6359H45.0769C45.082 16.0443 45.1599 16.3962 45.3107 16.6916C45.4668 16.9941 45.6849 17.2266 45.9651 17.389C46.2454 17.5482 46.5733 17.6278 46.9491 17.6278C47.2007 17.6278 47.4284 17.5928 47.6322 17.5227C47.836 17.4495 48.0127 17.3428 48.1624 17.2027C48.3121 17.0626 48.4251 16.889 48.5015 16.682L50.116 16.8635C50.0141 17.2902 49.8199 17.6628 49.5333 17.9813C49.2499 18.2965 48.8869 18.5417 48.4442 18.7169C48.0016 18.8888 47.4952 18.9748 46.9252 18.9748ZM45.3012 13.6727C45.1705 13.9171 45.0968 14.183 45.0802 14.4704H48.5302C48.527 14.1392 48.4554 13.8447 48.3152 13.5867C48.1751 13.3256 47.9793 13.1202 47.7277 12.9705C47.4793 12.8209 47.1895 12.746 46.8584 12.746C46.5049 12.746 46.1944 12.832 45.9269 13.004C45.6594 13.1728 45.4508 13.3957 45.3012 13.6727Z" fill="black"/>
<path d="M35.5078 9.0489V10.5344H38.5314V18.8315H40.2893V10.5344H43.3129V9.0489H35.5078Z" fill="black"/>
</svg>
